# xmcd
#
# Track frame offsets:
#	183
#	12073
#	25738
#	37850
#	50813
#	61450
#	71810
#	83635
#	95663
#	106743
#	119718
#	129780
#
# Disc length: 1909 seconds
#
# Revision: 2
# Processed by: cddbd v1.5.2PL0 Copyright (c) Steve Scherf et al.
# Submitted via: audiograbber 1.83.01
#
DISCID=9807730c
DTITLE=Robert Johnson - Love in Vain
DYEAR=1996
DGENRE=Blues
TTITLE0=I'm a Steady Rollin' Man
TTITLE1=Sweet Home Chicago
TTITLE2=Cross Road Blues
TTITLE3=Kind Hearted Woman Blues
TTITLE4=Love in Vain
TTITLE5=Stop Breakin' Down Blues
TTITLE6=Me and the Devil Blues
TTITLE7=Phonograph Blues
TTITLE8=Drunken Hearted Man
TTITLE9=Preaching Blues (Up Jumped the Devil)
TTITLE10=Little Queen of Spades
TTITLE11=Terraplane Blues
EXTD=
EXTT0=
EXTT1=
EXTT2=
EXTT3=
EXTT4=
EXTT5=
EXTT6=
EXTT7=
EXTT8=
EXTT9=
EXTT10=
EXTT11=
PLAYORDER=
